<svg id="Layer_1" data-name="Layer 1" xmlns="http://www.w3.org/2000/svg" xmlns:xlink="http://www.w3.org/1999/xlink" viewBox="0 0 650 500"><defs><style>.cls-1{fill:url(#linear-gradient);}.cls-2{fill:url(#linear-gradient-2);}.cls-3{fill:#0f0f19;}.cls-4{fill:url(#linear-gradient-3);}</style><linearGradient id="linear-gradient" x1="324.9998" y1="365.5064" x2="324.9998" y2="134.4935" gradientUnits="userSpaceOnUse"><stop offset="0.1477" stop-color="#0f0f19"/><stop offset="1" stop-color="#0f0f19" stop-opacity="0"/></linearGradient><linearGradient id="linear-gradient-2" x1="282.0154" y1="303.4704" x2="294.1864" y2="273.346" xlink:href="#linear-gradient"/><linearGradient id="linear-gradient-3" x1="287.823" y1="335.4548" x2="325.0125" y2="335.4548" xlink:href="#linear-gradient"/></defs><path class="cls-1" d="M325.0135,365.5064a62.98,62.98,0,0,1-62.9092-62.9089,61.7684,61.7684,0,0,1,3.333-20.1524,48.3344,48.3344,0,0,1,1.7646-4.6865L321.8,134.4935h6.4014l54.5976,143.2651a48.3661,48.3661,0,0,1,1.7637,4.6846,61.7634,61.7634,0,0,1,3.333,20.1543A62.9662,62.9662,0,0,1,325.0135,365.5064ZM325,151.002l-49.626,130.2073a39.641,39.641,0,0,0-1.4951,3.96l-.0371.114a52.8974,52.8974,0,0,0-2.8682,17.3145,54.0264,54.0264,0,1,0,108.0528,0,52.9058,52.9058,0,0,0-2.8672-17.3145l-.0362-.1115a39.6455,39.6455,0,0,0-1.496-3.9622l-.08-.1953Z"/><path class="cls-2" d="M288.7234,302.5972h-8.8691a44.0523,44.0523,0,0,1,2.3789-14.4157l.1094-.3286a31.01,31.01,0,0,1,1.167-3.0874l.1279-.2925,5.0195-13.1712,8.2891,3.1592-5.3067,13.85a22.53,22.53,0,0,0-.8378,2.21l-.1866.5627A35.205,35.205,0,0,0,288.7234,302.5972Z"/><path class="cls-3" d="M287.823,328.191a44.86,44.86,0,0,1-7.9687-25.5938h8.8691a36.0325,36.0325,0,0,0,6.4,20.5557Z"/><path class="cls-4" d="M325.0125,347.7564a45.2053,45.2053,0,0,1-37.19-19.5656l7.3008-5.0376a36.3343,36.3343,0,0,0,29.8887,15.7331Z"/></svg>