<svg xmlns="http://www.w3.org/2000/svg" xmlns:xlink="http://www.w3.org/1999/xlink" data-name="Layer 1" viewBox="0 0 650 500"><defs><linearGradient id="a" x1="325" x2="325" y1="174.21" y2="321.32" gradientUnits="userSpaceOnUse"><stop offset="0" stop-color="#0f0f19"/><stop offset=".4" stop-color="#0f0f19" stop-opacity=".84"/><stop offset=".79" stop-color="#0f0f19" stop-opacity=".37"/><stop offset="1" stop-color="#0f0f19" stop-opacity="0"/></linearGradient><linearGradient id="b" y1="209.31" y2="183.53" xlink:href="#a"/><linearGradient id="c" x1="227.87" x2="205.74" y1="265.77" y2="251.95" gradientTransform="rotate(60 216.807 258.88)" xlink:href="#a"/><linearGradient id="d" x1="268.78" x2="256.17" y1="224.5" y2="201.74" gradientTransform="rotate(30.03 262.484 213.137)" xlink:href="#a"/><linearGradient id="e" x1="422.02" x2="444.3" y1="265.31" y2="252.45" gradientTransform="rotate(29.99 433.15 258.872)" xlink:href="#a"/><linearGradient id="f" x1="381.22" x2="393.83" y1="224.5" y2="201.74" gradientTransform="rotate(59.99 387.5 213.085)" xlink:href="#a"/><linearGradient id="g" x1="345.61" x2="345.61" y1="247.76" y2="323.57" gradientTransform="rotate(59.99 345.605 285.632)" xlink:href="#a"/></defs><path fill="url(#a)" d="M472.1 321.32h-8.87c0-76.23-62-138.24-138.23-138.24s-138.23 62-138.23 138.24h-8.87c0-81.12 66-147.11 147.1-147.11s147.1 65.99 147.1 147.11z"/><path fill="url(#b)" d="M320.56 183.53h8.87v25.78h-8.87z"/><path fill="url(#c)" d="M212.37 245.96h8.87v25.79h-8.87z" transform="rotate(-60 216.827 258.865)"/><path fill="url(#d)" d="M258.04 200.18h8.87v25.87h-8.87z" transform="rotate(-30.03 262.486 213.117)"/><path fill="url(#e)" d="M420.3 254.44h25.72v8.87H420.3z" transform="rotate(-29.99 433.148 258.884)"/><path fill="url(#f)" d="M374.59 208.69h25.87v8.87h-25.87z" transform="rotate(-59.99 387.491 213.118)"/><path fill="url(#g)" d="M304.4 281.23h82.42v8.87H304.4z" transform="rotate(-59.99 345.58 285.665)"/></svg>