<svg xmlns="http://www.w3.org/2000/svg" xmlns:xlink="http://www.w3.org/1999/xlink" data-name="Layer 1" viewBox="0 0 650 500"><defs><linearGradient id="b" x1="307.37" x2="335.34" y1="141.41" y2="299.99" gradientUnits="userSpaceOnUse"><stop offset="0" stop-color="#0f0f19" stop-opacity="0"/><stop offset=".12" stop-color="#0f0f19" stop-opacity=".19"/><stop offset=".6" stop-color="#0f0f19" stop-opacity=".79"/><stop offset="1" stop-color="#0f0f19"/></linearGradient><linearGradient id="a" x1="217.59" x2="232.75" y1="340.96" y2="299.29" gradientTransform="rotate(70.9 225.172 320.142)" gradientUnits="userSpaceOnUse"><stop offset=".03" stop-color="#0f0f19" stop-opacity="0"/><stop offset=".93" stop-color="#0f0f19" stop-opacity=".92"/><stop offset="1" stop-color="#0f0f19"/></linearGradient><linearGradient id="c" x1="284.14" x2="299.31" y1="340.96" y2="299.29" gradientTransform="rotate(70.9 291.728 320.145)" xlink:href="#a"/><linearGradient id="d" x1="350.69" x2="365.86" y1="340.96" y2="299.29" gradientTransform="rotate(70.9 358.279 320.14)" xlink:href="#a"/><linearGradient id="e" x1="417.25" x2="432.41" y1="340.96" y2="299.29" gradientTransform="rotate(70.9 424.84 320.15)" xlink:href="#a"/><linearGradient id="f" x1="241.62" x2="256.78" y1="368.57" y2="326.91" gradientTransform="rotate(70.9 249.202 347.755)" xlink:href="#a"/><linearGradient id="g" x1="308.17" x2="323.34" y1="368.57" y2="326.91" gradientTransform="rotate(70.9 315.756 347.77)" xlink:href="#a"/><linearGradient id="h" x1="374.72" x2="389.89" y1="368.57" y2="326.91" gradientTransform="rotate(70.9 382.309 347.754)" xlink:href="#a"/></defs><path fill="url(#b)" d="M392.23 289.16c-.94 0-1.92 0-3-.09l-139 .09a43.71 43.71 0 0 1 0-87.41 45.46 45.46 0 0 1 5.35.32 65.56 65.56 0 0 1 128.5-14.67 51.21 51.21 0 1 1 8.15 101.76zm-2.74-9h.14c.95.05 1.8.08 2.6.08a42.34 42.34 0 1 0-10.33-83.34l-4.44 1.1-1-4.48a56.7 56.7 0 0 0-112.1 12.05v1.18l.19 6.39-5.7-1.45a34.84 34.84 0 1 0-8.64 68.59z"/><path fill="url(#a)" d="M203.07 315.69h44.2v8.87h-44.2z" transform="rotate(-70.9 225.198 320.133)"/><path fill="url(#c)" d="M269.62 315.69h44.2v8.87h-44.2z" transform="rotate(-70.9 291.747 320.125)"/><path fill="url(#d)" d="M336.18 315.69h44.2v8.87h-44.2z" transform="rotate(-70.9 358.29 320.124)"/><path fill="url(#e)" d="M402.73 315.69h44.2v8.87h-44.2z" transform="rotate(-70.9 424.853 320.127)"/><path fill="url(#f)" d="M227.1 343.3h44.2v8.87h-44.2z" transform="rotate(-70.9 249.215 347.741)"/><path fill="url(#g)" d="M293.65 343.3h44.2v8.87h-44.2z" transform="rotate(-70.9 315.778 347.744)"/><path fill="url(#h)" d="M360.21 343.3h44.2v8.87h-44.2z" transform="rotate(-70.9 382.322 347.743)"/></svg>